HIERARCHY
ROOT Hips
{
    OFFSET   0.000000   0.000000   0.000000
    CHANNELS 6 Xposition Yposition Zposition Zrotation Xrotation Yrotation
    JOINT Chest
    {
        OFFSET   0.000000   8.007230   0.000000
        CHANNELS 3 Zrotation Xrotation Yrotation
        JOINT Chest2
        {
            OFFSET   0.000000  22.077100   0.000000
            CHANNELS 3 Zrotation Xrotation Yrotation
            JOINT Neck
            {
                OFFSET   0.000000  23.254800  -0.000021
                CHANNELS 3 Zrotation Xrotation Yrotation
                JOINT Head
                {
                    OFFSET   0.000000  14.370000   1.956610
                    CHANNELS 3 Zrotation Xrotation Yrotation
                    End Site
                    {
                        OFFSET   0.000000  19.566000   0.000000
                    }
                }
            }
            JOINT LeftCollar
            {
                OFFSET   3.911900  19.017000  -0.467063
                CHANNELS 3 Zrotation Xrotation Yrotation
                JOINT LeftShoulder
                {
                    OFFSET  10.383700   0.000000   0.000000
                    CHANNELS 3 Zrotation Xrotation Yrotation
                    JOINT LeftElbow
                    {
                        OFFSET  26.662100   0.001529   0.000325
                        CHANNELS 3 Zrotation Xrotation Yrotation
                        JOINT LeftWrist
                        {
                            OFFSET  28.869000  -0.000011  -0.000096
                            CHANNELS 3 Zrotation Xrotation Yrotation
                            JOINT LeftFinger0
                            {
                                OFFSET   2.044650  -2.323460   3.252850
                                CHANNELS 3 Zrotation Xrotation Yrotation
                                JOINT LeftFinger01
                                {
                                    OFFSET   3.088130   0.000000   0.000000
                                    CHANNELS 3 Zrotation Xrotation Yrotation
                                    JOINT LeftFinger02
                                    {
                                        OFFSET   2.639460   0.000000   0.000000
                                        CHANNELS 3 Zrotation Xrotation Yrotation
                                        End Site
                                        {
                                            OFFSET   2.582190   0.000000   0.000000
                                        }
                                    }
                                }
                            }
                            JOINT LeftFinger1
                            {
                                OFFSET   8.364480   0.000000   3.252850
                                CHANNELS 3 Zrotation Xrotation Yrotation
                                JOINT LeftFinger11
                                {
                                    OFFSET   4.646930   0.000000   0.000000
                                    CHANNELS 3 Zrotation Xrotation Yrotation
                                    JOINT LeftFinger12
                                    {
                                        OFFSET   2.323460   0.000000   0.000000
                                        CHANNELS 3 Zrotation Xrotation Yrotation
                                        End Site
                                        {
                                            OFFSET   2.273050   0.000000   0.000000
                                        }
                                    }
                                }
                            }
                            JOINT LeftFinger2
                            {
                                OFFSET   8.364480   0.000016   1.078090
                                CHANNELS 3 Zrotation Xrotation Yrotation
                                JOINT LeftFinger21
                                {
                                    OFFSET   5.111620   0.000000   0.000000
                                    CHANNELS 3 Zrotation Xrotation Yrotation
                                    JOINT LeftFinger22
                                    {
                                        OFFSET   2.788160   0.000017   0.000000
                                        CHANNELS 3 Zrotation Xrotation Yrotation
                                        End Site
                                        {
                                            OFFSET   2.727660   0.000000   0.000000
                                        }
                                    }
                                }
                            }
                            JOINT LeftFinger3
                            {
                                OFFSET   7.899780   0.000015  -1.078090
                                CHANNELS 3 Zrotation Xrotation Yrotation
                                JOINT LeftFinger31
                                {
                                    OFFSET   4.646920   0.000000   0.000000
                                    CHANNELS 3 Zrotation Xrotation Yrotation
                                    JOINT LeftFinger32
                                    {
                                        OFFSET   2.323470   0.000000   0.000000
                                        CHANNELS 3 Zrotation Xrotation Yrotation
                                        End Site
                                        {
                                            OFFSET   2.273050   0.000000   0.000000
                                        }
                                    }
                                }
                            }
                            JOINT LeftFinger4
                            {
                                OFFSET   7.435090   0.000000  -3.252850
                                CHANNELS 3 Zrotation Xrotation Yrotation
                                JOINT LeftFinger41
                                {
                                    OFFSET   3.717550   0.000000   0.000000
                                    CHANNELS 3 Zrotation Xrotation Yrotation
                                    JOINT LeftFinger42
                                    {
                                        OFFSET   1.858760   0.000000   0.000000
                                        CHANNELS 3 Zrotation Xrotation Yrotation
                                        End Site
                                        {
                                            OFFSET   1.818440   0.000000   0.000000
                                        }
                                    }
                                }
                            }
                        }
                    }
                }
            }
            JOINT RightCollar
            {
                OFFSET  -3.911900  19.017000  -0.467062
                CHANNELS 3 Zrotation Xrotation Yrotation
                JOINT RightShoulder
                {
                    OFFSET -10.383700   0.000015   0.000000
                    CHANNELS 3 Zrotation Xrotation Yrotation
                    JOINT RightElbow
                    {
                        OFFSET -26.662100   0.001341   0.000385
                        CHANNELS 3 Zrotation Xrotation Yrotation
                        JOINT RightWrist
                        {
                            OFFSET -28.869000   0.000025  -0.000080
                            CHANNELS 3 Zrotation Xrotation Yrotation
                            JOINT RightFinger0
                            {
                                OFFSET  -2.044650  -2.323490   3.252850
                                CHANNELS 3 Zrotation Xrotation Yrotation
                                JOINT RightFinger01
                                {
                                    OFFSET  -3.088130   0.000000   0.000000
                                    CHANNELS 3 Zrotation Xrotation Yrotation
                                    JOINT RightFinger02
                                    {
                                        OFFSET  -2.639460   0.000000   0.000000
                                        CHANNELS 3 Zrotation Xrotation Yrotation
                                        End Site
                                        {
                                            OFFSET  -2.582190   0.000000   0.000000
                                        }
                                    }
                                }
                            }
                            JOINT RightFinger1
                            {
                                OFFSET  -8.364480   0.000000   3.252850
                                CHANNELS 3 Zrotation Xrotation Yrotation
                                JOINT RightFinger11
                                {
                                    OFFSET  -4.646930   0.000000   0.000000
                                    CHANNELS 3 Zrotation Xrotation Yrotation
                                    JOINT RightFinger12
                                    {
                                        OFFSET  -2.323470   0.000000   0.000000
                                        CHANNELS 3 Zrotation Xrotation Yrotation
                                        End Site
                                        {
                                            OFFSET  -2.273050   0.000000   0.000000
                                        }
                                    }
                                }
                            }
                            JOINT RightFinger2
                            {
                                OFFSET  -8.364480   0.000000   1.078090
                                CHANNELS 3 Zrotation Xrotation Yrotation
                                JOINT RightFinger21
                                {
                                    OFFSET  -5.111610   0.000000   0.000000
                                    CHANNELS 3 Zrotation Xrotation Yrotation
                                    JOINT RightFinger22
                                    {
                                        OFFSET  -2.788160   0.000000   0.000000
                                        CHANNELS 3 Zrotation Xrotation Yrotation
                                        End Site
                                        {
                                            OFFSET  -2.727660   0.000000   0.000000
                                        }
                                    }
                                }
                            }
                            JOINT RightFinger3
                            {
                                OFFSET  -7.899780   0.000000  -1.078090
                                CHANNELS 3 Zrotation Xrotation Yrotation
                                JOINT RightFinger31
                                {
                                    OFFSET  -4.646920   0.000000   0.000000
                                    CHANNELS 3 Zrotation Xrotation Yrotation
                                    JOINT RightFinger32
                                    {
                                        OFFSET  -2.323470   0.000000   0.000000
                                        CHANNELS 3 Zrotation Xrotation Yrotation
                                        End Site
                                        {
                                            OFFSET  -2.273050   0.000000   0.000000
                                        }
                                    }
                                }
                            }
                            JOINT RightFinger4
                            {
                                OFFSET  -7.435090   0.000000  -3.252850
                                CHANNELS 3 Zrotation Xrotation Yrotation
                                JOINT RightFinger41
                                {
                                    OFFSET  -3.717550   0.000000   0.000000
                                    CHANNELS 3 Zrotation Xrotation Yrotation
                                    JOINT RightFinger42
                                    {
                                        OFFSET  -1.858770   0.000000   0.000000
                                        CHANNELS 3 Zrotation Xrotation Yrotation
                                        End Site
                                        {
                                            OFFSET  -1.818440   0.000000   0.000000
                                        }
                                    }
                                }
                            }
                        }
                    }
                }
            }
        }
    }
    JOINT LeftHip
    {
        OFFSET   9.783010   0.000000   0.000000
        CHANNELS 3 Zrotation Xrotation Yrotation
        JOINT LeftKnee
        {
            OFFSET   0.000070 -41.789100   0.000028
            CHANNELS 3 Zrotation Xrotation Yrotation
            JOINT LeftAnkle
            {
                OFFSET   0.000087 -41.133200  -0.000100
                CHANNELS 3 Zrotation Xrotation Yrotation
                JOINT LeftToe
                {
                    OFFSET   0.000000  -6.358960  14.674500
                    CHANNELS 3 Zrotation Xrotation Yrotation
                    End Site
                    {
                        OFFSET   0.000000   0.000000   3.913200
                    }
                }
            }
        }
    }
    JOINT RightHip
    {
        OFFSET  -9.783020   0.000000   0.000000
        CHANNELS 3 Zrotation Xrotation Yrotation
        JOINT RightKnee
        {
            OFFSET   0.000044 -41.789100  -0.000870
            CHANNELS 3 Zrotation Xrotation Yrotation
            JOINT RightAnkle
            {
                OFFSET  -0.000090 -41.133200  -0.000245
                CHANNELS 3 Zrotation Xrotation Yrotation
                JOINT RightToe
                {
                    OFFSET   0.000000  -6.358960  14.674500
                    CHANNELS 3 Zrotation Xrotation Yrotation
                    End Site
                    {
                        OFFSET   0.000000   0.000000   3.913200
                    }
                }
            }
        }
    }
}
MOTION
Frames: 5
Frame Time:   0.016667
 -5.320540  88.673500  -0.168412  -6.161060 -19.872500 -17.374500  -0.021721  11.204000  -1.247920   0.217490  22.405800  -2.567430  -1.521490  -3.267800  -0.086811  -2.516550  -6.596510 -17.561000  -1.306360   0.340220   6.314110 -77.933300  14.404000  -8.140610  -1.507870  -0.859767 -15.511700   9.189390  -4.540240  -3.507950  39.876800  32.903000 -49.190700 -32.126400   0.005383   0.007542 -11.063200   0.003358  -0.003373 -31.038700  -1.269920   2.109360 -25.414500   0.001494  -0.003044 -17.790200   0.001686  -0.001887 -25.196600  -4.246840   8.944970 -25.528900   0.009213   0.002854 -17.002300   0.003860   0.004577 -28.227800  -4.716000   8.707830 -37.205400   0.001528  -0.003686 -24.778800   0.002252   0.001422 -34.303200  -5.614860   8.159670 -52.055000  -0.010970   0.000161 -34.668600   0.001034  -0.005107  -2.922320  -5.809130   4.691590  56.730600 -27.094600  80.238800  -1.594590 -39.132600  76.640600  32.711500 -55.654800  32.749100 -58.125200  53.961200 107.175000  22.084000  -0.086483   0.033117   6.042010  -0.041801   0.035043  49.462400   1.852550   1.447000  40.493700   0.017666  -0.077915  30.062400  -0.016218  -0.067034  51.055000  -4.160490  -3.424180  55.314700   0.007564  -0.007110  40.623200  -0.014588  -0.023993  59.658400  -5.120890  -3.081180  57.756500  -0.001108  -0.027310  43.736200  -0.022791  -0.021484  64.365100  -9.490180  -4.572320  97.116800  -0.026373  -0.051910  64.680000  -0.039412  -0.003713   4.968700  16.515900   1.837630   0.534805  15.510500  17.872900  -6.198340 -10.363700   2.528690  -0.000000   0.000000   0.000000   4.537470  13.252600  -4.010110  -3.260080  16.094200  -9.002880   4.751210 -10.075000  11.541900  -0.000000   0.000000   0.000000
 -5.313470  88.689000  -0.138147  -6.083800 -19.761400 -17.166200  -0.014857  11.163600  -1.159940   0.212145  22.325300  -2.387030  -1.232420  -3.391840  -0.073175  -2.037500  -6.851600 -13.851600  -1.327140   0.155558   6.209200 -77.963000  14.245600  -8.064570  -1.490760  -0.845284 -15.326000   9.180820  -4.402760  -3.498950  39.972000  33.048400 -49.507800 -32.129400   0.015544   0.009833 -11.064700   0.009517  -0.008932 -31.002200  -1.287640   2.141660 -25.385000   0.000885  -0.003223 -17.769600   0.001330  -0.002091 -25.285900  -4.252940   8.921920 -25.617800   0.014035   0.005264 -17.061500   0.005565   0.004494 -28.231000  -4.706900   8.692480 -37.148100   0.001960  -0.002950 -24.740600   0.004325   0.002098 -34.250700  -5.596470   8.150750 -51.974600  -0.001830   0.000478 -34.615100   0.001013  -0.003349  -2.844670  -5.993750   4.771160  56.226600 -27.023100  80.486100  -2.134070 -39.226500  75.001100  31.918400 -56.186600  32.353700 -56.464700  53.170200 105.107000  17.714600  -0.092443   0.029640   3.857290  -0.045551   0.036768  46.441600   3.006260   2.756760  38.053800   0.021906  -0.099871  27.626600  -0.018568  -0.081526  44.894100  -3.662440  -3.516770  55.578800   0.007720  -0.018474  39.131900  -0.019227  -0.025831  55.251400  -4.080810  -2.800020  55.989000  -0.004269  -0.023529  41.949200  -0.024583  -0.021367  61.005600  -8.769800  -4.830930  92.061900  -0.040889  -0.056359  61.313300  -0.046979   0.002500   4.965190  16.400200   1.806050   0.584384  15.427900  17.804900  -6.209380 -10.293400   2.454700  -0.000000   0.000000   0.000000   4.532110  13.251600  -4.025440  -3.201800  15.887900  -9.083180   4.776480 -10.021700  11.452000   0.000000   0.000000   0.000000
 -5.299180  88.707700  -0.107957  -5.998330 -19.643100 -16.934800  -0.004808  11.117700  -1.067830   0.212535  22.233700  -2.198820  -0.930010  -3.495780  -0.056869  -1.540150  -7.074670 -10.162100  -1.334110  -0.009643   6.068830 -78.016600  14.071900  -8.011920  -1.458610  -0.826394 -15.126700   9.192580  -4.365960  -3.478290  39.987200  33.007000 -49.550200 -32.129000   0.015561   0.009849 -11.064500   0.009522  -0.008932 -30.989800  -1.292290   2.150480 -25.375000   0.000343  -0.003360 -17.762500   0.001016  -0.002281 -25.320100  -4.255320   8.913060 -25.651900   0.011186   0.007796 -17.084200   0.004861   0.004502 -28.232500  -4.703510   8.686570 -37.135500   0.001724  -0.002228 -24.732300   0.006675   0.003195 -34.226300  -5.589080   8.147610 -51.937100   0.004079   0.000878 -34.590100   0.001231  -0.001680  -2.761200  -6.183130   4.868130  55.709000 -26.955000  80.634000  -2.572350 -39.313300  73.464100  31.143000 -56.006500  31.847800 -54.718600  52.250400 102.912000  12.570600  -0.074389   0.018287   1.285330  -0.037399   0.029834  41.936200   4.479170   5.079070  34.456700   0.021480  -0.084835  24.471100  -0.009900  -0.066159  38.228800  -2.398080  -2.840710  54.821800   0.007905  -0.023912  37.137600  -0.013717  -0.021043  48.552800  -2.681930  -2.212490  54.986100  -0.005851  -0.013665  39.786100  -0.016337  -0.015258  56.907500  -7.335360  -4.700050  85.808200  -0.037996  -0.043605  57.148200  -0.039501   0.003017   4.958240  16.281700   1.775210   0.632450  15.327000  17.732300  -6.215640 -10.216800   2.366130   0.000000   0.000000  -0.000000   4.523220  13.266800  -4.018510  -3.141050  15.655300  -9.165450   4.814840  -9.962250  11.321100  -0.000000   0.000000   0.000000
 -5.280600  88.727200  -0.077600  -5.899170 -19.517000 -16.671300   0.005149  11.063200  -0.972852   0.212122  22.124800  -2.004680  -0.618839  -3.585850  -0.038786  -1.027040  -7.267210  -6.500490  -1.340780  -0.179407   5.979450 -78.073800  13.921200  -7.965130  -1.423990  -0.797070 -14.921500   9.217040  -4.360820  -3.448950  39.900400  32.907600 -49.492200 -32.126000   0.015564   0.009852 -11.063000   0.009522  -0.008931 -30.987100  -1.292960   2.151740 -25.372900   0.000062  -0.003478 -17.761000   0.000853  -0.002415 -25.329600  -4.256000   8.910590 -25.661400   0.008337   0.010271 -17.090500   0.004157   0.004556 -28.233200  -4.702610   8.684900 -37.133700   0.001489  -0.001503 -24.731100   0.008799   0.004221 -34.218300  -5.586840   8.146880 -51.924800   0.006979   0.001247 -34.581900   0.001817  -0.000000  -2.667180  -6.369260   4.968380  55.287300 -26.939300  80.755100  -2.960750 -39.316700  71.950100  30.519500 -55.542100  31.380000 -52.890500  51.183500 100.584000   7.167960  -0.047894   0.006075  -1.416020  -0.025202   0.018917  36.740500   5.815310   7.795450  30.379900   0.018969  -0.057952  21.141600  -0.001232  -0.041169  32.300600  -1.048610  -1.684190  52.242100   0.008013  -0.025972  34.525600  -0.006353  -0.013434  41.354200  -1.296530  -1.456440  53.876600  -0.006814  -0.003051  37.431300  -0.005060  -0.006178  52.614200  -5.645070  -4.303010  79.231800  -0.030877  -0.030851  52.768300  -0.028495   0.003091   4.947210  16.152400   1.734710   0.679652  15.217100  17.653100  -6.219370 -10.135100   2.267630  -0.000000   0.000000  -0.000000   4.510170  13.282100  -4.011580  -3.077550  15.406200  -9.259730   4.823010  -9.890820  11.173600  -0.000000   0.000000  -0.000000
 -5.260700  88.744200  -0.046695  -5.777870 -19.379600 -16.366200   0.010425  10.994500  -0.874738   0.201344  21.987500  -1.802950  -0.306897  -3.660770  -0.019845  -0.506465  -7.422510  -2.914880  -1.370280  -0.394151   5.987270 -78.113200  13.845600  -7.897630  -1.395440  -0.739017 -14.711800   9.262490  -4.478680  -3.390940  39.710600  32.541700 -49.045400 -32.080000   0.005649   0.008559 -11.040000   0.003356  -0.002887 -31.010400  -1.282210   2.131970 -25.391700   0.000072  -0.003639 -17.774200   0.000869  -0.002454 -25.242100  -4.250010   8.933190 -25.574200   0.019057   0.012995 -17.032500   0.009788   0.009423 -28.231100  -4.711420   8.699990 -37.182500   0.007483  -0.000752 -24.763600   0.011081   0.005207 -34.245700  -5.600750   8.158460 -51.968200   0.006805   0.001425 -34.610800   0.003074   0.001805  -2.562280  -6.551780   5.076750  55.102000 -27.031800  80.931600  -3.318510 -39.157300  70.378500  30.542900 -54.936600  31.312500 -51.007100  49.983800  98.132700   1.924900  -0.034270   0.000884  -4.037550  -0.018311   0.011100  31.671700   6.536210  10.571500  26.412300   0.012965  -0.026464  18.356900  -0.002414  -0.019153  29.321900  -0.301418  -0.638369  46.920300   0.006758  -0.016835  30.966100  -0.004427  -0.008261  35.574300  -0.426874  -0.583940  52.117400  -0.007773   0.003253  35.172200  -0.001281  -0.000900  48.781800  -4.065440  -3.529240  73.345500  -0.016939  -0.032857  48.848000  -0.023213  -0.005858   4.933290  16.000400   1.667470   0.721891  15.109500  17.572400  -6.224210 -10.050800   2.162190   0.000000   0.000000  -0.000000   4.496150  13.275100  -4.030620  -3.015880  15.144600  -9.371420   4.774840  -9.782990  11.028900  -0.000000   0.000000   0.000000
